<svg xmlns="http://www.w3.org/2000/svg" xmlns:xlink="http://www.w3.org/1999/xlink" width="841.671" height="559" viewBox="0 0 841.671 559">
  <defs>
    <linearGradient id="linear-gradient" x1="0.494" y1="-0.004" x2="0.503" y2="1.009" gradientUnits="objectBoundingBox">
      <stop offset="0" stop-color="#ff4410"/>
      <stop offset="0.744" stop-color="#d6ecf2"/>
    </linearGradient>
  </defs>
  <g id="Group_84" data-name="Group 84" transform="translate(-890.797 -378.965)">
    <path id="Path_126" data-name="Path 126" d="M1695.5,991.775c80.054-40.707,85.285-238.083-69.538-284.281s-204.349-213.737-392.163-224.7c-58.291-3.4-194.539,21.551-244.8,169.26-49.774,146.274,7.784,332.075,44.929,339.723Z" transform="translate(-42.45 -55.759)" fill="url(#linear-gradient)"/>
    <path id="Path_127" data-name="Path 127" d="M1014.9,588.889a1.15,1.15,0,0,0-1.189.244c-1.557,1.474-5.253,2.516-7.192,2.824L1000,584.115c.659-1.85,2.361-5.292,4.1-6.552a1.15,1.15,0,0,0,.457-1.124l-1.353-7.9a1.152,1.152,0,0,0-.805-.908c-2.055-.611-4.806-3.291-6.042-4.816l3.535-9.562c1.93-.354,5.763-.6,7.722.27a1.151,1.151,0,0,0,1.2-.166l6.164-5.121a1.151,1.151,0,0,0,.383-1.151c-.5-2.085.448-5.807,1.15-7.641l10.049-1.721c1.272,1.5,3.4,4.691,3.627,6.823a1.15,1.15,0,0,0,.745.958l7.516,2.778a1.151,1.151,0,0,0,1.189-.244c1.557-1.474,5.253-2.516,7.193-2.825l6.514,7.842c-.658,1.849-2.361,5.292-4.1,6.552a1.15,1.15,0,0,0-.458,1.124l1.353,7.9a1.149,1.149,0,0,0,.805.907c2.055.612,4.806,3.292,6.042,4.817l-3.534,9.563c-1.931.354-5.764.6-7.722-.27a1.15,1.15,0,0,0-1.2.165l-6.164,5.121a1.152,1.152,0,0,0-.383,1.151c.5,2.085-.447,5.807-1.15,7.641l-10.048,1.721c-1.273-1.495-3.4-4.69-3.627-6.822a1.15,1.15,0,0,0-.744-.958Zm18.19-12.58A10.04,10.04,0,1,0,1018.952,575,10.04,10.04,0,0,0,1033.091,576.31Zm4.115,4.953A16.48,16.48,0,1,0,1014,579.117,16.479,16.479,0,0,0,1037.205,581.263Z" transform="translate(-56.848 -85.498)" fill="#0025bb"/>
    <path id="Path_128" data-name="Path 128" d="M1008.361,1117.56a1.317,1.317,0,0,0-1.386-.108c-2.18,1.132-6.58,1.113-8.813.841l-4.7-10.693c1.309-1.829,4.27-5.083,6.579-5.923a1.319,1.319,0,0,0,.859-1.094l1-9.126a1.318,1.318,0,0,0-.6-1.254c-2.07-1.322-4.254-5.142-5.134-7.211l6.91-9.417c2.239.22,6.538,1.157,8.419,2.736a1.318,1.318,0,0,0,1.376.2l8.405-3.693a1.319,1.319,0,0,0,.785-1.147c.11-2.454,2.326-6.255,3.679-8.052l11.61,1.277c.93,2.048,2.267,6.24,1.841,8.659a1.318,1.318,0,0,0,.518,1.29l7.4,5.432a1.318,1.318,0,0,0,1.386.107c2.18-1.132,6.58-1.113,8.813-.84l4.7,10.693c-1.309,1.829-4.27,5.082-6.578,5.923a1.318,1.318,0,0,0-.859,1.094l-1,9.126a1.319,1.319,0,0,0,.6,1.254c2.071,1.322,4.254,5.142,5.134,7.212l-6.91,9.416c-2.239-.219-6.538-1.156-8.42-2.735a1.318,1.318,0,0,0-1.376-.2l-8.405,3.694a1.319,1.319,0,0,0-.786,1.147c-.109,2.454-2.326,6.255-3.678,8.052l-11.611-1.276c-.929-2.048-2.267-6.24-1.84-8.659a1.318,1.318,0,0,0-.517-1.29Zm24-8.113a11.5,11.5,0,1,0-15.159-5.9A11.5,11.5,0,0,0,1032.366,1109.447Zm2.968,6.754a18.88,18.88,0,1,0-24.881-9.688A18.879,18.879,0,0,0,1035.334,1116.2Z" transform="translate(-55.289 -368.708)" fill="#adeff7"/>
    <path id="Path_129" data-name="Path 129" d="M2464.228,648.752a1.319,1.319,0,0,0-1.386-.107c-2.18,1.132-6.58,1.114-8.812.841l-4.7-10.693c1.309-1.829,4.271-5.083,6.579-5.924a1.319,1.319,0,0,0,.859-1.094l1-9.125a1.319,1.319,0,0,0-.6-1.254c-2.07-1.322-4.254-5.142-5.134-7.211l6.911-9.417c2.238.22,6.538,1.157,8.419,2.736a1.319,1.319,0,0,0,1.376.2l8.405-3.694a1.317,1.317,0,0,0,.785-1.147c.11-2.455,2.326-6.255,3.679-8.052l11.61,1.276c.929,2.048,2.267,6.24,1.841,8.659a1.318,1.318,0,0,0,.517,1.29l7.4,5.432a1.32,1.32,0,0,0,1.387.107c2.18-1.132,6.58-1.113,8.812-.841l4.7,10.693c-1.309,1.829-4.271,5.083-6.579,5.923a1.32,1.32,0,0,0-.859,1.094l-1,9.126a1.317,1.317,0,0,0,.6,1.253c2.07,1.322,4.253,5.142,5.134,7.211l-6.911,9.416c-2.239-.219-6.537-1.156-8.419-2.735a1.318,1.318,0,0,0-1.375-.2l-8.406,3.694a1.317,1.317,0,0,0-.786,1.147c-.11,2.454-2.326,6.255-3.678,8.052l-11.61-1.276c-.93-2.048-2.267-6.24-1.841-8.659a1.317,1.317,0,0,0-.517-1.29Zm24.005-8.113a11.5,11.5,0,1,0-15.16-5.9A11.5,11.5,0,0,0,2488.233,640.639Zm2.967,6.754a18.88,18.88,0,1,0-24.881-9.688A18.88,18.88,0,0,0,2491.2,647.393Z" transform="translate(-839.323 -116.239)" fill="#4e6ac6"/>
    <path id="Path_130" data-name="Path 130" d="M899.427,1227.747a1.344,1.344,0,0,0-1.043-.957c-2.457-.463-5.97-3.243-7.587-4.864l2.956-11.518c2.2-.642,6.615-1.388,8.992-.61a1.342,1.342,0,0,0,1.375-.336l6.539-6.679a1.343,1.343,0,0,0,.307-1.382c-.827-2.36-.176-6.792.42-9l11.452-3.2c1.656,1.582,4.509,5.034,5.025,7.481a1.341,1.341,0,0,0,.978,1.023l9.053,2.323a1.342,1.342,0,0,0,1.35-.425c1.63-1.9,5.794-3.548,8.006-4.137l8.5,8.318c-.543,2.225-2.106,6.423-3.967,8.092a1.341,1.341,0,0,0-.4,1.359l2.514,9a1.344,1.344,0,0,0,1.043.957c2.457.463,5.97,3.244,7.587,4.865l-2.956,11.518c-2.2.642-6.615,1.388-8.992.61a1.343,1.343,0,0,0-1.375.336l-6.539,6.679a1.341,1.341,0,0,0-.307,1.381c.827,2.36.176,6.792-.419,9l-11.452,3.2c-1.656-1.582-4.509-5.035-5.025-7.482a1.343,1.343,0,0,0-.978-1.023l-9.054-2.323a1.342,1.342,0,0,0-1.35.426c-1.63,1.9-5.794,3.548-8.006,4.137l-8.5-8.318c.542-2.225,2.106-6.423,3.967-8.093a1.34,1.34,0,0,0,.4-1.359Zm24.325,8.587a11.711,11.711,0,1,0-8.432-14.254A11.711,11.711,0,0,0,923.752,1236.334Zm-1.867,7.275a19.221,19.221,0,1,0-13.84-23.4A19.22,19.22,0,0,0,921.885,1243.609Z" transform="translate(0 -436.339)" fill="#0025bb"/>
    <path id="Path_131" data-name="Path 131" d="M1085.166,1312.515a2.517,2.517,0,0,0-2.127,1.589c-1.712,4.368-8.061,9.87-11.614,12.284l-20.2-9.467c-.417-4.275-.249-12.675,2.013-16.784a2.518,2.518,0,0,0-.14-2.651l-10.027-14.382a2.517,2.517,0,0,0-2.439-1.047c-4.638.7-12.578-2.046-16.445-3.915l-1.9-22.222c3.493-2.5,10.852-6.553,15.542-6.649a2.518,2.518,0,0,0,2.226-1.447l7.441-15.875a2.518,2.518,0,0,0-.312-2.636c-2.927-3.666-4.517-11.916-4.832-16.2l18.3-12.756c3.91,1.776,11.1,6.121,13.529,10.134a2.515,2.515,0,0,0,2.365,1.205l17.469-1.493a2.517,2.517,0,0,0,2.127-1.589c1.712-4.367,8.061-9.87,11.613-12.284l20.2,9.467c.417,4.274.249,12.675-2.013,16.784a2.518,2.518,0,0,0,.14,2.651l10.028,14.382a2.517,2.517,0,0,0,2.439,1.047c4.638-.7,12.579,2.046,16.445,3.916l1.9,22.223c-3.494,2.5-10.852,6.553-15.542,6.649a2.518,2.518,0,0,0-2.226,1.447l-7.441,15.874a2.516,2.516,0,0,0,.312,2.636c2.926,3.666,4.517,11.916,4.832,16.2l-18.3,12.756c-3.91-1.776-11.1-6.121-13.53-10.136a2.516,2.516,0,0,0-2.365-1.2Zm24.314-41.833a21.966,21.966,0,1,0-29.212,10.567A21.965,21.965,0,0,0,1109.48,1270.682Zm12.756,5.979A36.053,36.053,0,1,0,1074.29,1294,36.054,36.054,0,0,0,1122.237,1276.661Z" transform="translate(-70.815 -440.179)" fill="#ff4410"/>
    <path id="Path_132" data-name="Path 132" d="M1426.8,1182.985l-261.156.091c-8.716,0-16.062-4.533-17.108-10.567l-50.687-292.228c-.842-4.856,4.739-9.087,11.751-8.909l253.69,6.446c5.606.142,10.232,3.1,10.916,6.982Z" transform="translate(-111.461 -265.175)" fill="#352e73"/>
    <path id="Path_133" data-name="Path 133" d="M1139.3,890.411l229.238,5.824c5.605.143,10.232,3.1,10.916,6.982l49.667,281.6-252.037.087L1127.555,899.32C1126.712,894.464,1132.293,890.233,1139.3,890.411Z" transform="translate(-127.457 -275.428)" fill="#7271b3"/>
    <g id="Group_47" data-name="Group 47" transform="translate(1015.951 517.411)">
      <path id="Path_134" data-name="Path 134" d="M1162.007,678.979l36.767,392.06h255.958l-33.312-387.1Z" transform="translate(-1162.007 -678.979)" fill="#adeff7"/>
      <path id="Path_135" data-name="Path 135" d="M1421.419,683.941l-259.412-4.963,2.894,30.862h258.747Z" transform="translate(-1162.007 -678.979)" fill="#4fcbe8"/>
      <path id="Path_136" data-name="Path 136" d="M1427.025,745.856H1168.278l2.5,26.687h258.541Z" transform="translate(-1165.384 -714.994)" fill="#b73213"/>
      <path id="Path_137" data-name="Path 137" d="M1403.7,847.162l16.672,146.454,136.474-.054-15.293-146.4Z" transform="translate(-1292.169 -769.551)" fill="#fee2bf"/>
      <g id="Group_40" data-name="Group 40" transform="translate(20.499 92.938)">
        <path id="Path_138" data-name="Path 138" d="M1282.486,883.043h-74.692a1.334,1.334,0,1,1,0-2.668h74.692a1.334,1.334,0,1,1,0,2.668Z" transform="translate(-1206.428 -880.375)" fill="#f3ffff"/>
      </g>
      <g id="Group_41" data-name="Group 41" transform="translate(20.499 112.034)">
        <path id="Path_139" data-name="Path 139" d="M1287.056,924.427h-79.261a1.335,1.335,0,1,1,0-2.669h79.261a1.335,1.335,0,1,1,0,2.669Z" transform="translate(-1206.428 -921.758)" fill="#f3ffff"/>
      </g>
      <g id="Group_42" data-name="Group 42" transform="translate(23.004 131.16)">
        <path id="Path_140" data-name="Path 140" d="M1291.118,965.872h-77.9a1.335,1.335,0,1,1,0-2.669h77.9a1.335,1.335,0,1,1,0,2.669Z" transform="translate(-1211.856 -963.203)" fill="#f3ffff"/>
      </g>
      <g id="Group_43" data-name="Group 43" transform="translate(23.915 152.396)">
        <path id="Path_141" data-name="Path 141" d="M1294.231,1011.89H1215.2a1.335,1.335,0,1,1,0-2.669h79.034a1.335,1.335,0,1,1,0,2.669Z" transform="translate(-1213.83 -1009.221)" fill="#f3ffff"/>
      </g>
      <g id="Group_44" data-name="Group 44" transform="translate(53.752 245.333)">
        <path id="Path_142" data-name="Path 142" d="M1486.377,1213.285H1279.854a1.335,1.335,0,1,1,0-2.669h206.523a1.335,1.335,0,1,1,0,2.669Z" transform="translate(-1278.488 -1210.616)" fill="#f3ffff"/>
      </g>
      <g id="Group_45" data-name="Group 45" transform="translate(55.574 266.967)">
        <path id="Path_143" data-name="Path 143" d="M1488.5,1260.168H1283.8a1.335,1.335,0,1,1,0-2.669h204.7a1.335,1.335,0,1,1,0,2.669Z" transform="translate(-1282.436 -1257.499)" fill="#f3ffff"/>
      </g>
      <path id="Path_144" data-name="Path 144" d="M1622.5,705.227V718.9h16.172V705.227Zm13.429,11.359h-10.687v-9.039h10.687Z" transform="translate(-1409.999 -693.114)" fill="#f3ffff"/>
      <g id="Group_46" data-name="Group 46" transform="translate(238.618 13.435)">
        <path id="Path_145" data-name="Path 145" d="M1682.076,708.092s2.87,4.287,3.321,5.028h.084c.45-.8,3.265-5.028,3.265-5.028h2.674l-4.644,6.43,4.784,6.87h-2.814s-2.983-4.507-3.461-5.3h-.056c-.451.8-3.406,5.3-3.406,5.3h-2.73l4.841-6.788-4.616-6.512Z" transform="translate(-1679.093 -708.092)" fill="#f3ffff"/>
      </g>
    </g>
    <g id="Group_48" data-name="Group 48" transform="translate(970.808 933.55)">
      <path id="Path_146" data-name="Path 146" d="M1823.387,1585.17H1066.635a2.22,2.22,0,1,1,0-4.415h756.753a2.22,2.22,0,1,1,0,4.415Z" transform="translate(-1064.181 -1580.755)" fill="#fee2bf"/>
    </g>
    <path id="Path_147" data-name="Path 147" d="M1897.4,1562.593H1539.508c-10.221,0-18.506-7.2-18.506-16.089v-.158H1916.09C1916.09,1555.318,1907.722,1562.593,1897.4,1562.593Z" transform="translate(-339.387 -628.675)" fill="#2d2861"/>
    <path id="Path_148" data-name="Path 148" d="M1569.179,1562.593H1255.791a16.147,16.147,0,0,1-16.205-16.089v-.158h345.958A16.307,16.307,0,0,1,1569.179,1562.593Z" transform="translate(-187.835 -628.675)" fill="#7271b3"/>
    <g id="Group_51" data-name="Group 51" transform="translate(1133.515 443.72)">
      <path id="Rectangle_69" data-name="Rectangle 69" d="M17.309,0h0a17.31,17.31,0,0,1,17.31,17.31v0A17.309,17.309,0,0,1,17.31,34.619h0A17.309,17.309,0,0,1,0,17.31v0A17.309,17.309,0,0,1,17.309,0Z" fill="#8cd334"/>
      <g id="Group_50" data-name="Group 50" transform="translate(5.21 10.039)">
        <path id="Path_149" data-name="Path 149" d="M1453.368,544.591c.26-1.115-.778-2.316-2.333-2.6a60.016,60.016,0,0,0-20.6-.118c-1.558.261-2.6,1.467-2.333,2.6h0c2.041,9.128,1.2,5.749,2.763,10.822a2.484,2.484,0,0,0,2.786,1.675h0a2.512,2.512,0,0,0,2.1-2.685q-.115-1.071-.23-2.143a1.556,1.556,0,0,1,1.528-1.637,50.684,50.684,0,0,1,7.411-.011,1.548,1.548,0,0,1,1.532,1.617l-.226,2.122a2.455,2.455,0,0,0,2.108,2.627h0a2.517,2.517,0,0,0,2.786-1.67C1451.029,553.99,1452.848,546.92,1453.368,544.591Z" transform="translate(-1428.058 -541.044)" fill="#fff"/>
        <g id="Group_49" data-name="Group 49" transform="translate(2.477 1.879)">
          <path id="Path_150" data-name="Path 150" d="M1438.7,546.267a1.766,1.766,0,0,1,.9.246v-1.4h-1.8v1.4A1.764,1.764,0,0,1,1438.7,546.267Z" transform="translate(-1435.784 -545.115)" fill="#8cd334"/>
          <path id="Path_151" data-name="Path 151" d="M1434.578,550.393a1.756,1.756,0,0,1,.246-.9h-1.4v1.8h1.4A1.759,1.759,0,0,1,1434.578,550.393Z" transform="translate(-1433.426 -547.473)" fill="#8cd334"/>
          <path id="Path_152" data-name="Path 152" d="M1438.7,554.989a1.759,1.759,0,0,1-.9-.246v1.4h1.8v-1.4A1.76,1.76,0,0,1,1438.7,554.989Z" transform="translate(-1435.784 -550.3)" fill="#8cd334"/>
          <path id="Path_153" data-name="Path 153" d="M1443.055,549.493a1.772,1.772,0,0,1,0,1.8h1.4v-1.8Z" transform="translate(-1438.612 -547.473)" fill="#8cd334"/>
        </g>
        <path id="Path_154" data-name="Path 154" d="M1439.575,550.184a1.079,1.079,0,1,1-1.079-1.079A1.079,1.079,0,0,1,1439.575,550.184Z" transform="translate(-1433.098 -545.385)" fill="#8cd334"/>
        <path id="Path_155" data-name="Path 155" d="M1471.5,549.056a2.308,2.308,0,1,1-2.308-2.308A2.308,2.308,0,0,1,1471.5,549.056Z" transform="translate(-1448.968 -544.116)" fill="#8cd334"/>
      </g>
    </g>
    <g id="Group_52" data-name="Group 52" transform="translate(916.776 600.396)">
      <rect id="Rectangle_70" data-name="Rectangle 70" width="44.235" height="44.235" rx="20.629" fill="#53ceea"/>
      <path id="Path_156" data-name="Path 156" d="M993.581,886.525a15.158,15.158,0,1,1-15.158-15.158A15.158,15.158,0,0,1,993.581,886.525Z" transform="translate(-955.802 -865.572)" fill="#fff"/>
      <path id="Path_157" data-name="Path 157" d="M993.46,886.975l1.351,9.1a1.22,1.22,0,0,1-2.414.358,1.245,1.245,0,0,1-.005-.321Z" transform="translate(-971.484 -873.977)" fill="#fc008b"/>
      <path id="Path_158" data-name="Path 158" d="M993.581,904.984l10.712.906-10.684,1.19a1.053,1.053,0,0,1-.234-2.094A1.086,1.086,0,0,1,993.581,904.984Z" transform="translate(-971.513 -883.673)" fill="#fc008b"/>
    </g>
    <g id="Group_54" data-name="Group 54" transform="translate(1418.172 695.521)">
      <g id="Group_53" data-name="Group 53" transform="translate(0 64.1)">
        <path id="Path_159" data-name="Path 159" d="M2072.568,1227.345c-2.368,3.474-22.492,14.463-22.492,14.463a14.137,14.137,0,0,0-6.147.621c-2.464.7-7.15.051-6.355,1.525s5.147.472,4.712,1.584-9.343,3.8-8.622,5.132,8.927-1.744,8.537-.75-8.237,3-7.218,4.884,8.953-3.184,9.5-2.171-5.445,4.943-4.625,6.462,7.017-5.261,7.247-4.649c.125.33-1.931,4.575-1.074,4.971.969.448,4.1-4.853,7.622-8.659a11.176,11.176,0,0,1,2.337-2.388c6.65-3.269,24.057-11.281,27.4-15.172,4.1-4.766,14.659-29.35,14.659-29.35l-17.03,1.741S2075.352,1223.258,2072.568,1227.345Z" transform="translate(-2033.622 -1203.85)" fill="#f7a491"/>
        <path id="Path_160" data-name="Path 160" d="M2056.97,1296.111a5.474,5.474,0,0,0,1.667,1.2,5.212,5.212,0,0,0,4.283.175A9.054,9.054,0,0,1,2056.97,1296.111Z" transform="translate(-2046.196 -1253.536)" fill="#f48c7f"/>
      </g>
      <path id="Path_161" data-name="Path 161" d="M2220.293,1195.615s3.418,42.164,3.418,45.826-14.55,4.7-14.55,4.7l-4.448-43.268Z" transform="translate(-2125.76 -1135.315)" fill="#352e73"/>
      <path id="Path_162" data-name="Path 162" d="M2191.449,1170.6s9.44-5.054,17.222-.422,9.9,31.845,9.9,31.845l-24.93,2.987Z" transform="translate(-2118.617 -1120.563)" fill="#7271b3"/>
      <path id="Path_163" data-name="Path 163" d="M2138.068,1177.781c-.946.326-4.812,3.081-7.064,7.419s-8.2,22.464-8.2,22.464l9.79,3.586Z" transform="translate(-2081.649 -1125.711)" fill="#2ba14c"/>
      <path id="Path_164" data-name="Path 164" d="M2238.6,1501.274s1.613,5.728,2.891,7.006,5.519,6.242,4.477,8.7-26.88,5.984-27.86,5,4.463-5.13,7.55-7.674,5.3-5.671,4-9.467-1.292-3.42-1.292-3.8S2238.6,1501.274,2238.6,1501.274Z" transform="translate(-2132.91 -1299.737)" fill="#f7a491"/>
      <path id="Path_165" data-name="Path 165" d="M2218,1530.187c-1.119-.94,2.461-4.8,7.722-7.817a33.482,33.482,0,0,0,7.626-.774c3.894-.973,6.88-4.347,7.765-5.443.081.113,6.344,6.145,5.122,9.03C2245.194,1527.643,2219.11,1531.118,2218,1530.187Z" transform="translate(-2132.806 -1307.936)" fill="#fc008b"/>
      <path id="Path_166" data-name="Path 166" d="M2142.626,1504.739s-.477,5.883.492,7.41,4.36,7.58,2.47,9.469c-1.7,1.7-25.371.609-26.114-.562s3.308-4.664,6.875-6.474,6.406-4.38,5.972-8.366-.517-3.62-.434-3.986S2142.626,1504.739,2142.626,1504.739Z" transform="translate(-2079.808 -1300.422)" fill="#f7a491"/>
      <path id="Path_167" data-name="Path 167" d="M2113,1533.17c-1.235-.783,4.221-5.717,10.014-7.518a33.416,33.416,0,0,0,7.612.908c4.013-.1,7.663-2.741,8.765-3.617.054.127,5.445,7.936,3.029,9.929C2140.536,1534.427,2114.877,1534.36,2113,1533.17Z" transform="translate(-2076.276 -1311.593)" fill="#fc008b"/>
      <path id="Path_168" data-name="Path 168" d="M2166,1325.706l15.281,44.276,17.528,40.989,14.68-3.688s-5.3-28.413-10.276-37.338c-3.766-6.754-6.4-45.51-6.4-45.51Z" transform="translate(-2104.914 -1204.689)" fill="#7271b3"/>
      <path id="Path_169" data-name="Path 169" d="M2156.569,1322.746l-5.293,77.814h-12.512s-5.465-81.525-3.463-89.282,22.847-6.005,22.847-6.005Z" transform="translate(-2088.141 -1194.279)" fill="#352e73"/>
      <path id="Path_170" data-name="Path 170" d="M2143.2,1172.49s16.125-4.832,18.607-4.519c2.719.341,9.325,3.841,9.325,3.841s-.406,27.994.762,35.909,9.342,33.272,9.342,33.272-11.511,6.673-30.862,4.5-18.017-6.84-18.017-6.84,1.834-28.026,3.67-40.371S2143.2,1172.49,2143.2,1172.49Z" transform="translate(-2086.786 -1120.42)" fill="#8cd334"/>
      <path id="Path_171" data-name="Path 171" d="M2238.665,1077.744a4.615,4.615,0,0,1-3.258,5.323c-4.108,1.385-6.659-13.07-9-15.927s-9.421-3.635-13.1,2.069a23.651,23.651,0,0,0-2.818,5.094c-.131.486.055.455.055.455l1.111,2.077s3.565-2.164,4.91,1.788-2.621,10.417.779,15.784,9.634,1.57,9.634,1.57c5.171,3.475,11.121-1.83,13.034-6.851S2238.665,1077.744,2238.665,1077.744Z" transform="translate(-2128.845 -1064.945)" fill="#fcc13f"/>
      <path id="Path_172" data-name="Path 172" d="M2171.893,1136.035l.561,5.809,5.2,8.936s-10.245,12.4-13.408,9.438c-.706-.662-2.49-13.789-2.49-13.789Z" transform="translate(-2102.624 -1103.229)" fill="#f7a491"/>
      <path id="Path_173" data-name="Path 173" d="M2172.455,1141.844l1.086,1.983a37.852,37.852,0,0,1-11.166,6.931c-.362-2.408-.623-4.328-.623-4.328l10.141-10.4Z" transform="translate(-2102.624 -1103.229)" fill="#f48c7f"/>
      <path id="Path_174" data-name="Path 174" d="M2153.26,1094.63a36.516,36.516,0,0,0-3.7,3.844c-5.924,8.254-1.126,24.531,1.968,25.884,4.682,2.049,10.777-.707,17.645-5.364s9.038-12.2,2.75-18.76S2153.26,1094.63,2153.26,1094.63Z" transform="translate(-2094.541 -1080.906)" fill="#f7a491"/>
      <path id="Path_175" data-name="Path 175" d="M2178.8,1087.16l-1.871-1.791c-7.336,0-13.185-4.423-21.419.024-5.435,2.935-3.2,7.065-3.2,7.065,20.124,0,12.865,15.861,15.331,22.172S2185.492,1107.292,2178.8,1087.16Z" transform="translate(-2097.293 -1074.889)" fill="#fcc13f"/>
      <path id="Path_176" data-name="Path 176" d="M2179.467,1125.212s.284-5.205,3.476-4.174.7,8.875-1.945,8.6S2179.467,1125.212,2179.467,1125.212Z" transform="translate(-2112.038 -1095.081)" fill="#f7a491"/>
      <path id="Path_177" data-name="Path 177" d="M2206.1,1083.034s-3.032,1.88-4.255,1.724,1.872,3.808,3.512,4.219,1.063-1.168,1.409-1.709,1.623-.12,1.917-.519C2209.353,1085.838,2207.53,1083.208,2206.1,1083.034Z" transform="translate(-2124.065 -1074.687)" fill="#8cd334"/>
      <path id="Path_178" data-name="Path 178" d="M2194.828,1170.9s-3.627-.548-6.739,11.225c-3.526,13.342.271,27.161,6.1,30.661s8.237,2.826,8.237,2.826l-.915,8.228s-17.236-3.858-19.583-18.591c-3.847-24.146,7.5-36.582,7.5-36.582a13.947,13.947,0,0,1,2.8.612A19.083,19.083,0,0,1,2194.828,1170.9Z" transform="translate(-2113.064 -1120.802)" fill="#352e73"/>
      <path id="Path_179" data-name="Path 179" d="M2196.729,1233.92v17.238c0,3-3.448,23.333-7.674,30.3s-9.955,14.729-11.14,15.173-3.763,2.077-5.1.741-2.391-.723-4.06-1.446.222-3.114,2.558-5.449,2.836-2.892,2.447-3.281-2.281,1.78-3.281,1.446.613-3.837,3.226-5.06,6.784-3.615,7.174-4.893.388-.946.388-1.279,2.947-20.519,2.947-24.467,1.168-16.794,1.168-16.794Z" transform="translate(-2106.055 -1155.944)" fill="#f7a491"/>
      <path id="Path_180" data-name="Path 180" d="M2205.036,1174.778a9.118,9.118,0,0,1,7.077,6.584c1.446,4.893,5.256,18.8,4.588,25.58,0,0-16.238,2.113-16.238,1.446s-3.552-18.072-1.779-25.691C2200.23,1176.051,2202.4,1174.45,2205.036,1174.778Z" transform="translate(-2122.247 -1124.072)" fill="#2ba14c"/>
      <path id="Path_181" data-name="Path 181" d="M2148.18,1176.178l-11.287,40.568h0c.5-5.3,1.043-10.359,1.589-14.031,1.835-12.345,7.173-25.8,7.173-25.8S2146.649,1176.62,2148.18,1176.178Z" transform="translate(-2089.237 -1124.848)" fill="#352e73"/>
    </g>
    <g id="Group_57" data-name="Group 57" transform="translate(1596.254 690.904)">
      <path id="Path_182" data-name="Path 182" d="M2533.349,1136.414c3.591,6.4,2.026,19.063-.962,23.139s-10.1,5.354-10.1,5.354l-10.429,3.481s-7.5-10.639-9.579-17.18c-.8-2.529-.938-4.173,0-9.539,1.212-6.934,3-10.523,10.57-11.358C2520.2,1129.5,2529.007,1128.67,2533.349,1136.414Z" transform="translate(-2463.741 -1095.259)" fill="#2d2861"/>
      <path id="Path_183" data-name="Path 183" d="M2498.168,1175.672c.362,2.328,1.969,4.022,3.589,3.785s2.64-2.318,2.277-4.646-1.969-4.023-3.589-3.785S2497.807,1173.345,2498.168,1175.672Z" transform="translate(-2461.839 -1117.445)" fill="#f7a491"/>
      <path id="Path_184" data-name="Path 184" d="M2572.3,1510.547c1.039,2.025,5.99,5.528,5.99,5.528-4.232,5.038-17.808,15.733-17.808,15.733s-1.719-1.779-.946-3.413,4.537-11.733,2.831-15.056a78,78,0,0,0-6.562-10.891,108.088,108.088,0,0,0,11.045-4.776C2569.083,1502.263,2571.961,1509.877,2572.3,1510.547Z" transform="translate(-2492.92 -1293.366)" fill="#f7a491"/>
      <path id="Path_185" data-name="Path 185" d="M2576.8,1528.166s-9.971,10.615-11.9,11.748c-1.571.922-3.634,12.181-1.38,12.516s19.085-16.836,19.578-19.174S2576.8,1528.166,2576.8,1528.166Z" transform="translate(-2496.539 -1309.788)" fill="#2d2861"/>
      <path id="Path_186" data-name="Path 186" d="M2466.771,1458.82c1.216,1.953,6.464,5.136,6.464,5.136-3.772,5.29-16.359,16.805-16.359,16.805s-1.873-1.666-1.246-3.344,3.479-11.985,1.483-15.192a80.742,80.742,0,0,0-7.513-10.449,104.6,104.6,0,0,0,10.589-5.455C2462.82,1450.76,2466.368,1458.173,2466.771,1458.82Z" transform="translate(-2435.723 -1265.712)" fill="#f7a491"/>
      <path id="Path_187" data-name="Path 187" d="M2474.6,1477.734s-9.865,10.539-11.788,11.677c-1.565.928-3.574,12.195-1.318,12.521s19.854-15.686,20.334-18.025S2474.6,1477.734,2474.6,1477.734Z" transform="translate(-2441.582 -1282.629)" fill="#2d2861"/>
      <path id="Path_188" data-name="Path 188" d="M2457.339,1335.639s-35.118,15.092-37.732,26.519c-1.413,6.183,16.45,38.884,16.45,38.884l13.937-5.807s-2.907-12.025-6.571-19.948c-1.7-3.674-2.842-5.826-2.842-5.826,2.869-2.408,35.888-12.373,35.888-12.373l-5.906-19.542Z" transform="translate(-2419.528 -1206.106)" fill="#d6007e"/>
      <path id="Path_189" data-name="Path 189" d="M2547.847,1335.639s2.829,4.475-2.352,16.427c-3.4,7.836-14.147,30.753-13.876,31.213,7.6,12.866,17.62,32,17.62,32l-16.5,8.051c-.24.417-20.964-27.861-21.77-36.415-.617-6.554,4.9-49.8,4.9-49.8Z" transform="translate(-2468.744 -1206.106)" fill="#fc008b"/>
      <g id="Group_55" data-name="Group 55" transform="translate(73.225 12.205)">
        <path id="Path_190" data-name="Path 190" d="M2600.193,1118.4c3.2-3.677,9.755-16.194,11.972-20.45-.065-.408-.339-2.794,1.4-6.417,1.225-2.56,1.38-7.65,2.843-6.635s-.436,5.563.86,5.221,5.881-9.583,7.206-8.664-3.559,9.364-2.4,9.059,4.8-8.487,6.674-7.187-5.136,9.233-4.131,9.93,5.3-4.417,6.811-3.371-6.184,6.707-5.5,6.526,5.547-1.707,5.822-.746c.311,1.088-11.7,6.331-12.759,8.666h0c-1.942,6.258-5.336,17.644-10.144,23.582-5.883,7.266-18.837,23.354-18.837,23.354l-11.8-8.911S2596.4,1122.758,2600.193,1118.4Z" transform="translate(-2578.207 -1081.388)" fill="#f7a491"/>
        <path id="Path_191" data-name="Path 191" d="M2664.095,1105.41a5.384,5.384,0,0,1,1.005,1.919,5.523,5.523,0,0,1-.6,4.606A9.372,9.372,0,0,0,2664.095,1105.41Z" transform="translate(-2624.461 -1094.325)" fill="#f48c7f"/>
      </g>
      <g id="Group_56" data-name="Group 56" transform="translate(3.755 0)">
        <path id="Path_192" data-name="Path 192" d="M2450.752,1097.637c-1.915-4.491-4.325-18.433-5.132-23.17.187-.369,1.177-2.553.636-6.538-.381-2.816,1.029-7.706-.674-7.195s-1.288,5.427-2.415,4.7-2.663-10.941-4.206-10.479.52,10.014-.489,9.363-1.97-9.564-4.15-8.909,2.062,10.377.891,10.729-3.692-5.848-5.448-5.321,3.831,8.3,3.237,7.916-4.754-3.346-5.309-2.516c-.629.938,9.2,9.655,9.486,12.2h0c-.067,6.555-.322,18.441,2.435,25.582,3.374,8.738,11.706,28.064,11.706,28.064l13.019-4.817S2453.023,1102.962,2450.752,1097.637Z" transform="translate(-2427.664 -1054.94)" fill="#f7a491"/>
        <path id="Path_193" data-name="Path 193" d="M2455.505,1083.487a5.345,5.345,0,0,0-1.543,1.513,5.515,5.515,0,0,0-.837,4.568A9.35,9.35,0,0,1,2455.505,1083.487Z" transform="translate(-2441.275 -1070.314)" fill="#f48c7f"/>
      </g>
      <path id="Path_194" data-name="Path 194" d="M2524.4,1189.646s12.6,11.039,12.514,11.3c-.672,1.962-13.632,10.592-13.632,15.827,0,5.935,4.116,46.208,4.116,46.208a60.268,60.268,0,0,1-25.258,1.651,62.236,62.236,0,0,1-23.455-8.57s.853-10.955.853-21.078a121.112,121.112,0,0,0-1.544-18.837l-10.594-23.774,13.178-7.269s9.129,17.532,11.542,17.532a114.418,114.418,0,0,0,14.653-1.188Z" transform="translate(-2445.308 -1125.038)" fill="#87e0f4"/>
      <path id="Path_195" data-name="Path 195" d="M2520.437,1199.128s1.559,11.029-1.747,14.013c-3.492,3.151,12.635,2.284,13.774-2.921.616-2.812-1.588-15.227-1.588-15.227Z" transform="translate(-2472.664 -1130.363)" fill="#f7a491"/>
      <path id="Path_196" data-name="Path 196" d="M2533.491,1194.993l-10.439,4.135a44.852,44.852,0,0,1,.367,5.795,13.419,13.419,0,0,0,8.591-1.955,17.568,17.568,0,0,0,2.468-1.692C2534.013,1197.933,2533.491,1194.993,2533.491,1194.993Z" transform="translate(-2475.279 -1130.363)" fill="#f48c7f"/>
      <path id="Path_197" data-name="Path 197" d="M2518.75,1144.276a14.332,14.332,0,0,1,7.829,5.926c2.9,4.66,4.5,18.13-5.85,24.023s-17.876-3.233-17.68-11.865S2507.195,1142.693,2518.75,1144.276Z" transform="translate(-2464.505 -1102.968)" fill="#f7a491"/>
      <path id="Path_198" data-name="Path 198" d="M2518.75,1144.276a14.332,14.332,0,0,1,7.829,5.926c2.9,4.66,4.5,18.13-5.85,24.023s-17.876-3.233-17.68-11.865S2507.195,1142.693,2518.75,1144.276Z" transform="translate(-2464.505 -1102.968)" fill="#f7a491"/>
      <path id="Path_199" data-name="Path 199" d="M2552.979,1179.607c-.818,2.216-.23,4.448,1.313,4.986s3.456-.825,4.273-3.041.23-4.449-1.312-4.986S2553.8,1177.39,2552.979,1179.607Z" transform="translate(-2491.197 -1120.377)" fill="#f7a491"/>
    </g>
    <g id="Group_59" data-name="Group 59" transform="translate(1219.414 378.965)">
      <path id="Path_200" data-name="Path 200" d="M1613.293,378.965l-.715,10.291-9.665,3.669,23,16.376,9.831-3.83v-10.4Z" transform="translate(-1602.912 -378.965)" fill="#fcc13f"/>
      <circle id="Ellipse_3" data-name="Ellipse 3" cx="41.079" cy="41.079" r="41.079" transform="matrix(0.151, -0.989, 0.989, 0.151, 22.063, 85.132)" fill="#2ba14c"/>
      <circle id="Ellipse_4" data-name="Ellipse 4" cx="32.621" cy="32.621" r="32.621" transform="translate(36.248 18.099)" fill="#8cd334"/>
      <circle id="Ellipse_5" data-name="Ellipse 5" cx="20.942" cy="20.942" r="20.942" transform="translate(46.703 70.362) rotate(-86.544)" fill="#fee2bf"/>
      <path id="Path_201" data-name="Path 201" d="M1750.52,477.176a10.068,10.068,0,1,1-10.068-10.069A10.068,10.068,0,0,1,1750.52,477.176Z" transform="translate(-1671.56 -426.432)" fill="#fc008b"/>
      <g id="Group_58" data-name="Group 58" transform="translate(9.932 10.548)">
        <path id="Path_202" data-name="Path 202" d="M1682.687,442.868a.869.869,0,0,1-.492-.153l-57.38-39.3a.873.873,0,0,1,.986-1.44l56.852,38.939C1683.05,441.186,1682.965,442.868,1682.687,442.868Z" transform="translate(-1624.435 -401.822)" fill="#352e73"/>
      </g>
      <path id="Path_203" data-name="Path 203" d="M1742.138,478.2l.224,3.356-3.222,1.052,5.57,1.857.322-2.637Z" transform="translate(-1676.276 -432.408)" fill="#fcc13f"/>
    </g>
    <path id="Path_204" data-name="Path 204" d="M2234.968,693.836l-2.775-6.562-6.979-1.434a.979.979,0,0,1-.444-1.7l5.384-4.667-.793-7.08a.979.979,0,0,1,1.478-.948l6.1,3.677,6.489-2.942a.979.979,0,0,1,1.358,1.113l-1.613,6.94,4.8,5.262a.979.979,0,0,1-.639,1.635l-7.1.612-3.521,6.194A.979.979,0,0,1,2234.968,693.836Z" transform="translate(-718.208 -157.435)" fill="#8cd334"/>
    <path id="Path_205" data-name="Path 205" d="M2555.4,1003.88a.61.61,0,0,1-1.092-.064" transform="translate(-895.858 -336.504)" fill="#fc008b"/>
    <path id="Path_206" data-name="Path 206" d="M1546.487,442.391l-5.1-4.767-6.6,2.667-5.343-5.748-6.158,5.01-6.329-6.234-6.239,3.914-7.07-5,1.893-2.676,5.287,3.74,6.583-4.13,6.084,5.992,6.261-5.094,5.9,6.343,6.449-2.6,4.731,4.418,3.877-2.6,1.824,2.724Z" transform="translate(-330.037 -27.035)" fill="#fcc13f"/>
    <g id="Group_63" data-name="Group 63" transform="translate(1315.342 563.16)">
      <path id="Rectangle_71" data-name="Rectangle 71" d="M6.866,0H265.734A6.865,6.865,0,0,1,272.6,6.865V22.693a6.866,6.866,0,0,1-6.866,6.866H6.867A6.867,6.867,0,0,1,0,22.692V6.866A6.866,6.866,0,0,1,6.866,0Z" transform="translate(0)" fill="#fee2bf"/>
      <g id="Group_60" data-name="Group 60" transform="translate(11.079 3.812)">
        <path id="Path_207" data-name="Path 207" d="M2032.353,808.208h-191.2a6.363,6.363,0,0,1-6.355-6.356v-9.118a6.363,6.363,0,0,1,6.355-6.356h191.2a6.363,6.363,0,0,1,6.356,6.356v9.118A6.363,6.363,0,0,1,2032.353,808.208Zm-191.2-20.07a4.6,4.6,0,0,0-4.6,4.6v9.118a4.6,4.6,0,0,0,4.6,4.6h191.2a4.6,4.6,0,0,0,4.6-4.6v-9.118a4.6,4.6,0,0,0-4.6-4.6Z" transform="translate(-1834.798 -786.379)" fill="#7271b3"/>
      </g>
      <g id="Group_61" data-name="Group 61" transform="translate(234.448 2.376)">
        <path id="Path_208" data-name="Path 208" d="M2326.494,798.573a7.653,7.653,0,1,1,7.653-7.654A7.662,7.662,0,0,1,2326.494,798.573Zm0-13.548a5.894,5.894,0,1,0,5.894,5.894A5.9,5.9,0,0,0,2326.494,785.025Z" transform="translate(-2318.84 -783.266)" fill="#7271b3"/>
      </g>
      <g id="Group_62" data-name="Group 62" transform="translate(245.108 14.699)">
        <path id="Path_209" data-name="Path 209" d="M2348.961,820.56l-6.847-9.185a.878.878,0,0,1,1.354-1.115l.058.063,7.7,8.549a1.415,1.415,0,1,1-2.1,1.894c-.029-.032-.056-.065-.082-.1Z" transform="translate(-2341.939 -809.972)" fill="#7271b3"/>
      </g>
    </g>
    <path id="Path_210" data-name="Path 210" d="M1617.676,555.382l-3.409-2.985-4.392,1.116a.623.623,0,0,1-.725-.849l1.786-4.165-2.419-3.832a.623.623,0,0,1,.584-.953l4.512.411,2.9-3.484a.623.623,0,0,1,1.087.26l1,4.419,4.21,1.679a.623.623,0,0,1,.088,1.113l-3.893,2.32-.3,4.522A.623.623,0,0,1,1617.676,555.382Z" transform="translate(-386.464 -86.947)" fill="#fcc13f"/>
    <path id="Path_211" data-name="Path 211" d="M1915.231,465.327l-3.409-2.985-4.392,1.116a.623.623,0,0,1-.726-.849l1.786-4.165-2.419-3.832a.623.623,0,0,1,.583-.952l4.513.411,2.9-3.485a.622.622,0,0,1,1.086.26l1,4.419,4.209,1.678a.623.623,0,0,1,.089,1.114l-3.893,2.32-.3,4.522A.623.623,0,0,1,1915.231,465.327Z" transform="translate(-546.707 -38.449)" fill="#fc008b"/>
    <g id="Group_68" data-name="Group 68" transform="translate(1079.325 696.438)">
      <path id="Path_212" data-name="Path 212" d="M1379.845,1172.6s7.274,1.811,9.639,10.863,3.57,30.244,5.62,32.453,15.451,13.706,17.869,13.31,7.831-7.193,9.512-7.193,1.472,1.642.631,2.548-1.866,1.954-1.366,2.492l.5.538s5.735-1.707,7-.914-1.739,4.939-1.891,6.437-3.863,4.49-4.52,5.2-2.977,1.484-11.071.295a38.5,38.5,0,0,1-25.28-15.122c-7.305-9.741-10.245-39.624-10.079-42.677C1376.827,1173.1,1379.845,1172.6,1379.845,1172.6Z" transform="translate(-1340.838 -1123.837)" fill="#f48c7f"/>
      <path id="Path_213" data-name="Path 213" d="M1389.982,1182.187a12.747,12.747,0,0,0-10.882-9.589s-4.121.5-4.574,8.229c-.1,1.776.881,13.55,3.311,24.241,3.91-2.928,10.754-5.408,15.619-6.269A142.116,142.116,0,0,0,1389.982,1182.187Z" transform="translate(-1339.826 -1123.837)" fill="#eaa292"/>
      <path id="Path_214" data-name="Path 214" d="M1434.294,1472.01s4.858,19.813,8.479,22.924,15.43,9.062,12.339,9.7-25.957,1.172-25.329-2.642,1.285-6.246,1.285-6.246l-6.049-14.152Z" transform="translate(-1367.022 -1285.08)" fill="#f7a491"/>
      <path id="Path_215" data-name="Path 215" d="M1461.949,1535.42c-5.577.554-21.86,1.14-26.6.534,0,0-.89-.175-.263-3.989.153-.932.308-1.782.455-2.534,4.3,1.13,13.673-1.276,17.386-1.769,4.033,1.931,8.578,4.814,10.044,5.055C1465.09,1533.066,1465.089,1535.107,1461.949,1535.42Z" transform="translate(-1372.32 -1315.051)" fill="#fc008b"/>
      <path id="Path_216" data-name="Path 216" d="M1330.664,1502.22s.9,8.024.9,10.233-2.058,8.439-1.1,9.392,28.19.836,28.19-.061-4.813-3.616-11.355-5.485-4.922-9.711-5.751-14.078Z" transform="translate(-1315.963 -1301.349)" fill="#f7a491"/>
      <path id="Path_217" data-name="Path 217" d="M1358.687,1539.087c0-2.1-4.467-4.067-10.251-5.835-6.164,2.083-14.725.364-17.934-.249-.982,2.569-1.388,6.059-.7,6.237C1330.623,1539.452,1358.687,1539.47,1358.687,1539.087Z" transform="translate(-1315.56 -1317.927)" fill="#fc008b"/>
      <path id="Path_218" data-name="Path 218" d="M1380.206,1292.543l23.187,95.708-14.674,3.287-35-93.51Z" transform="translate(-1328.625 -1188.431)" fill="#2ba14c"/>
      <path id="Path_219" data-name="Path 219" d="M1358.193,1302.342l-7.561,22.239-9.563,73.612-14.59-.948s-4.927-73.353-3.228-93.345Z" transform="translate(-1312.024 -1193.708)" fill="#8cd334"/>
      <path id="Path_220" data-name="Path 220" d="M1361.916,1231.865c-3.106-11.752-7.171-27.666-8.284-34.546-1.869-11.554-8.156-25.656-8.156-25.656a69.816,69.816,0,0,0-12.062-.807c-9.941.552-24.147,3.422-24.147,3.422l4.887,64.519C1329.842,1238.45,1347.045,1237.084,1361.916,1231.865Z" transform="translate(-1304.686 -1122.873)" fill="#ff4410"/>
      <path id="Path_221" data-name="Path 221" d="M1409.452,1270.405l-10,25.26,1.031,1.16,32.625-3.977,9.184-20.023-1.03-1.03Z" transform="translate(-1353.252 -1176.509)" fill="#7271b3"/>
      <path id="Path_222" data-name="Path 222" d="M1411.685,1272.637l-10,25.261,33.655-2.818,8.154-21.052Z" transform="translate(-1354.455 -1177.711)" fill="#2d2861"/>
      <path id="Path_223" data-name="Path 223" d="M1304.934,1178.327a15.277,15.277,0,0,1,10.386,10.862c2.548,9.052,3.848,30.245,6.056,32.453s16.651,13.706,19.256,13.31,8.439-7.193,10.252-7.193,1.585,1.643.679,2.549-2.011,1.954-1.473,2.492.354.49.538.538c2.653.689,8.07-2.124,9.43-1.331s-1.3,2.662-1.3,4.021.333,1.336.17,2.832a5.652,5.652,0,0,1-1.246,3.4c-.708.708-9.628,3.284-18.349,2.1a42.237,42.237,0,0,1-27.242-15.121c-7.872-9.742-11.04-39.624-10.862-42.677C1301.68,1178.825,1304.934,1178.327,1304.934,1178.327Z" transform="translate(-1300.351 -1126.922)" fill="#f7a491"/>
      <path id="Path_224" data-name="Path 224" d="M1486.627,1240.755a1.89,1.89,0,1,1-1.89-1.89A1.89,1.89,0,0,1,1486.627,1240.755Z" transform="translate(-1398.164 -1159.524)" fill="#7271b3"/>
      <g id="Group_64" data-name="Group 64" transform="translate(81.265 81.999)">
        <rect id="Rectangle_72" data-name="Rectangle 72" width="14.136" height="1.112" transform="translate(0 13.399) rotate(-71.424)" fill="#7271b3"/>
      </g>
      <g id="Group_65" data-name="Group 65" transform="translate(88.036 71.164)">
        <path id="Path_225" data-name="Path 225" d="M1498.312,1233.693a.317.317,0,0,1-.072-.008.333.333,0,0,1-.254-.4,9.574,9.574,0,0,0-7.6-11.479.334.334,0,1,1,.12-.657,10.242,10.242,0,0,1,8.131,12.28A.334.334,0,0,1,1498.312,1233.693Z" transform="translate(-1490.113 -1221.146)" fill="#fcc13f"/>
      </g>
      <g id="Group_66" data-name="Group 66" transform="translate(88.834 66.844)">
        <path id="Path_226" data-name="Path 226" d="M1503.532,1229.6a.4.4,0,0,1-.072-.007.334.334,0,0,1-.253-.4,13.972,13.972,0,0,0-11.092-16.753.333.333,0,1,1,.12-.656,14.641,14.641,0,0,1,11.623,17.553A.333.333,0,0,1,1503.532,1229.6Z" transform="translate(-1491.841 -1211.784)" fill="#fcc13f"/>
      </g>
      <g id="Group_67" data-name="Group 67" transform="translate(89.54 63.016)">
        <path id="Path_227" data-name="Path 227" d="M1508.156,1225.981a.356.356,0,0,1-.072-.007.334.334,0,0,1-.253-.4,17.87,17.87,0,0,0-14.185-21.425.334.334,0,1,1,.12-.656,18.536,18.536,0,0,1,14.716,22.226A.333.333,0,0,1,1508.156,1225.981Z" transform="translate(-1493.372 -1203.489)" fill="#fcc13f"/>
      </g>
      <path id="Path_228" data-name="Path 228" d="M1314.8,1187.915a12.747,12.747,0,0,0-10.881-9.588s-4.122.5-4.575,8.228c-.1,1.777.881,13.55,3.311,24.241,3.91-2.927,10.755-5.408,15.619-6.269A142.17,142.17,0,0,0,1314.8,1187.915Z" transform="translate(-1299.338 -1126.922)" fill="#eaa292"/>
      <path id="Path_229" data-name="Path 229" d="M1313.011,1088.755c-.108,6.007,1.864,8.62,5.609,13.333a90.851,90.851,0,0,0,10.352,10.275l18.578-11.842s.683-1.459-.8-8.871C1340.622,1060.953,1313.094,1084.1,1313.011,1088.755Z" transform="translate(-1306.699 -1071.821)" fill="#2d2861"/>
      <path id="Path_230" data-name="Path 230" d="M1322.835,1124.821c.751,2.35,2.647,3.844,4.236,3.336s2.268-2.824,1.517-5.174-2.647-3.845-4.236-3.337S1322.084,1122.47,1322.835,1124.821Z" transform="translate(-1311.827 -1095.267)" fill="#f7a491"/>
      <path id="Path_231" data-name="Path 231" d="M1378.17,1117.552c-.7,2.365.027,4.667,1.626,5.141s3.463-1.06,4.164-3.425-.027-4.667-1.626-5.141S1378.871,1115.187,1378.17,1117.552Z" transform="translate(-1341.648 -1092.302)" fill="#f7a491"/>
      <path id="Path_232" data-name="Path 232" d="M1341.069,1146.76l-.693,12.562s1.523,4.25,8.411,4.264c5.083.01,4.5-11.326,4.5-11.326l-.4-5.5Z" transform="translate(-1321.438 -1109.922)" fill="#f7a491"/>
      <path id="Path_233" data-name="Path 233" d="M1353.749,1156.225h.1a29.962,29.962,0,0,0,.117-3.963l-.4-5.5h-11.81l-.1,1.885C1343.133,1151.168,1347.493,1156.225,1353.749,1156.225Z" transform="translate(-1322.125 -1109.922)" fill="#f27a6a"/>
      <path id="Path_234" data-name="Path 234" d="M1339.911,1084.345c-3.979.587-6.889,3.4-9,6.845-4.191,6.82-.783,16.859.367,19.16s5.752,8.216,12.571,8.216,10.88-7.944,11.454-14.024c.77-8.14-.7-16.585-8.451-19.415A14.573,14.573,0,0,0,1339.911,1084.345Z" transform="translate(-1315.246 -1076.239)" fill="#f7a491"/>
      <path id="Path_235" data-name="Path 235" d="M1323.684,1091.27s1.936-10.863,8.1-13.3,16.259,2.619,18.287,8.791c0,0-1.934-12.753-5.286-16.1s-10.15-3.724-10.15-3.724l2.244,2.234a21.309,21.309,0,0,0-6.11-.812c-3.656,0-4.334.88-4.334.88s2.505.406,2.505,1.218-6.636,1.084-6.636,1.084-.532,5.411-2.686,7.565S1323.684,1091.27,1323.684,1091.27Z" transform="translate(-1310.014 -1066.932)" fill="#2d2861"/>
      <path id="Path_236" data-name="Path 236" d="M1480.063,1289.183s-7.064,6.02-5.727,7.358c.418.418,3.558-2.363,3.558-2.363s-3.132,3.647-2.669,5.032a3.224,3.224,0,0,1,.261,1.906l3.464-3.741,1.612-7.95Z" transform="translate(-1393.49 -1186.622)" fill="#f48c7f"/>
    </g>
    <path id="Path_237" data-name="Path 237" d="M972.517,986.827l6.206,2.5,4.979-4.662,6.758,3.292,3.772-6.6,7.807,3.385,4.223-5.65,8.043,2.029-.768,3.044-6.014-1.517-4.456,5.962-7.5-3.254-3.835,6.711-7.457-3.632-4.862,4.552-5.752-2.314-2.568,3.658-2.57-1.8Z" transform="translate(-41.855 -323.186)" fill="#fcc13f"/>
    <path id="Path_238" data-name="Path 238" d="M1574.228,494.83l-8.278.206-.635,6.1-8.16.487-1.512,5.8-6.079,1.152.591,2.408,8.131-1.541,1.434-5.5,8.489-.507.624-6,7.5-.186Z" transform="translate(-354.768 -62.397)" fill="#adeff7"/>
    <g id="Group_69" data-name="Group 69" transform="translate(1375.642 455.2)">
      <path id="Path_239" data-name="Path 239" d="M1978.569,572.677a19.624,19.624,0,1,1-8.621-26.383A19.621,19.621,0,0,1,1978.569,572.677Z" transform="translate(-1941.46 -544.166)" fill="#fcc13f"/>
      <path id="Path_240" data-name="Path 240" d="M1959.305,582.427a10.492,10.492,0,1,0,18.712,9.5Z" transform="translate(-1950.458 -564.771)" fill="#efefef"/>
    </g>
    <g id="Group_83" data-name="Group 83" transform="translate(1181.615 600.921)">
      <g id="Group_81" data-name="Group 81" transform="translate(0 17.23)">
        <path id="Rectangle_73" data-name="Rectangle 73" d="M15.619,0h8.852A15.619,15.619,0,0,1,40.09,15.619v.648a0,0,0,0,1,0,0H0a0,0,0,0,1,0,0v-.648A15.619,15.619,0,0,1,15.619,0Z" transform="translate(82.956 147.795)" fill="#2d2861"/>
        <path id="Path_241" data-name="Path 241" d="M1703.209,1245.265c0,6.638-4.815,12.02-10.755,12.02s-10.756-5.382-10.756-12.02,4.816-12.021,10.756-12.021S1703.209,1238.626,1703.209,1245.265Z" transform="translate(-1607.542 -1078.21)" fill="#2d2861"/>
        <path id="Path_242" data-name="Path 242" d="M1795.381,1367.217c0,6.639-4.815,12.02-10.755,12.02s-10.756-5.382-10.756-12.02,4.816-12.02,10.756-12.02S1795.381,1360.579,1795.381,1367.217Z" transform="translate(-1657.18 -1143.885)" fill="#2d2861"/>
        <path id="Path_243" data-name="Path 243" d="M1794.322,1498.642c0,6.639-4.816,12.02-10.756,12.02s-10.755-5.382-10.755-12.02,4.815-12.02,10.755-12.02S1794.322,1492,1794.322,1498.642Z" transform="translate(-1656.609 -1214.662)" fill="#2d2861"/>
        <path id="Path_244" data-name="Path 244" d="M1781.255,1245.265c0,6.638-4.815,12.02-10.756,12.02s-10.756-5.382-10.756-12.02,4.816-12.021,10.756-12.021S1781.255,1238.626,1781.255,1245.265Z" transform="translate(-1649.572 -1078.21)" fill="#2d2861"/>
        <path id="Path_245" data-name="Path 245" d="M1739.471,1243.743l-18.693.341-2.362-26.527h25.59Z" transform="translate(-1627.316 -1069.761)" fill="#2d2861"/>
        <path id="Path_246" data-name="Path 246" d="M1743.518,1202.453l-12.359,4.422-11.287-8.651,1.842-14.109,13.129-5.457,13.48,10.847Z" transform="translate(-1628.1 -1048.813)" fill="#2d2861"/>
        <path id="Path_247" data-name="Path 247" d="M1785.015,1316.621a138.8,138.8,0,0,1-18.646-.319c-2.851-.241-4.981-3.031-4.712-6.213l3.107-36.735a5.326,5.326,0,0,1,5.243-5.147,100.047,100.047,0,0,0,11.265-.248,5.3,5.3,0,0,1,5.452,5.136q1.578,18.651,3.156,37.3C1790.153,1313.646,1787.931,1316.475,1785.015,1316.621Z" transform="translate(-1650.59 -1096.897)" fill="#7271b3"/>
        <path id="Path_248" data-name="Path 248" d="M1797.563,1445.963l-8.185-42.5a7.066,7.066,0,0,0-6.688-6.037h-11.38a7.067,7.067,0,0,0-6.688,6.037l-8.185,42.5h.009v14.6a5.518,5.518,0,0,0,4.68,5.58c.393.062,5.995-2.579,5.995-5.7v-7.379c0-3.926,2.848-7.109,6.36-7.109h15.734a4.543,4.543,0,0,1,4.27,4.773v15.411s4.075-1.44,4.075-3.692v-16.491Z" transform="translate(-1647.791 -1166.628)" fill="#7271b3"/>
        <path id="Path_249" data-name="Path 249" d="M1696.12,1367.328c-.1,6.639-4.993,11.948-10.932,11.86s-10.675-5.539-10.577-12.178,4.992-11.948,10.932-11.86S1696.218,1360.691,1696.12,1367.328Z" transform="translate(-1603.725 -1143.86)" fill="#2d2861"/>
        <path id="Path_250" data-name="Path 250" d="M1687.257,1498.3c-.1,6.638-4.992,11.948-10.932,11.86s-10.675-5.54-10.577-12.178,4.992-11.948,10.932-11.86S1687.355,1491.666,1687.257,1498.3Z" transform="translate(-1598.952 -1214.394)" fill="#2d2861"/>
        <path id="Path_251" data-name="Path 251" d="M1690.476,1316.621a138.795,138.795,0,0,1-18.646-.319c-2.852-.241-4.982-3.031-4.712-6.213q1.553-18.367,3.107-36.735a5.326,5.326,0,0,1,5.243-5.147,100.049,100.049,0,0,0,11.265-.248,5.3,5.3,0,0,1,5.452,5.136q1.578,18.651,3.156,37.3C1695.614,1313.646,1693.392,1316.475,1690.476,1316.621Z" transform="translate(-1599.678 -1096.897)" fill="#7271b3"/>
        <path id="Path_252" data-name="Path 252" d="M1690.406,1445.751l-7.557-42.616a7.068,7.068,0,0,0-6.6-6.135l-11.378-.168a7.067,7.067,0,0,0-6.777,5.938l-8.811,42.374h.009l-.215,14.6a5.791,5.791,0,0,0,4.495,5.972,4.856,4.856,0,0,0,1.214.055c2.783-.218,4.921-2.87,4.967-5.986l.108-7.379c.058-3.925,2.953-7.066,6.465-7.013l15.732.232a4.543,4.543,0,0,1,4.2,4.836l-.227,15.363s4.094-1.334,4.128-3.586l.243-16.489Z" transform="translate(-1589.975 -1166.306)" fill="#7271b3"/>
        <g id="Group_80" data-name="Group 80">
          <path id="Path_253" data-name="Path 253" d="M1868.162,902.628l-.859,1.852c18,7.079,28.168,26.469,16.593,51.406.583.272,5.262,2.228,5.847,2.5C1901.888,932.2,1887.037,910.108,1868.162,902.628Z" transform="translate(-1707.497 -900.162)" fill="#e0dedf"/>
          <path id="Path_254" data-name="Path 254" d="M1896.339,1011.367c-4.292-1.867-10.635,3.414-14.122,11.694-3.321,7.884-2.976,15.9.8,18.2h0c6.09,1.978,15.376-.027,18.131-6.545l2.313-4.984C1906.56,1023.056,1902.7,1014.135,1896.339,1011.367Z" transform="translate(-1714.302 -958.519)" fill="#fff"/>
          <path id="Path_255" data-name="Path 255" d="M1650.32,1102.075c-5.207-2.834-12.289.13-15.818,6.622s-2.169,14.049,3.038,16.884,12.29-.131,15.819-6.622S1655.527,1104.909,1650.32,1102.075Z" transform="translate(-1581.069 -1006.992)" fill="#2d2861"/>
          <path id="Path_256" data-name="Path 256" d="M1830.5,954.351c22.207-47.839-43.338-78.319-65.549-30.471l-1.672-.778c23.34-50.31,92.271-18.277,68.927,32.042Z" transform="translate(-1651.476 -897.555)" fill="#e8e3e7"/>
          <path id="Path_257" data-name="Path 257" d="M1846.616,1173.019l-14.009-28.665-18.025,13.138,10.073,25.643Z" transform="translate(-1679.105 -1030.339)" fill="#2d2861"/>
          <path id="Path_258" data-name="Path 258" d="M1838.253,1195.606a12.058,12.058,0,1,0,17.013.582A12.055,12.055,0,0,0,1838.253,1195.606Z" transform="translate(-1689.807 -1056.194)" fill="#2d2861"/>
          <path id="Path_259" data-name="Path 259" d="M1655.934,1104l22.6-24.335-3.27-4.588c-5.027-7.057-15.163-6.727-22.185.721l-13.621,14.448Z" transform="translate(-1584.795 -990.29)" fill="#2d2861"/>
          <g id="Group_74" data-name="Group 74" transform="translate(0 104.858)">
            <g id="Group_70" data-name="Group 70" transform="translate(5.23 58.127)">
              <path id="Path_260" data-name="Path 260" d="M1545.222,1252.076q-.982-.7-1.972-1.4a1.114,1.114,0,0,0-1.552.265q-1.328,1.9-2.493,3.892a1.111,1.111,0,0,0,.44,1.532q1.056.572,2.106,1.152a1.112,1.112,0,0,0,1.5-.416q1.044-1.775,2.229-3.478A1.117,1.117,0,0,0,1545.222,1252.076Z" transform="translate(-1535.955 -1250.473)" fill="#2d2861"/>
              <path id="Path_261" data-name="Path 261" d="M1537.073,1266.127l-.954-.477a1.116,1.116,0,0,0-1.5.5q-1.241,2.548-2.218,5.2a1.11,1.11,0,0,0,.7,1.428q.506.17,1.011.342a1.11,1.11,0,0,0,1.4-.673q.908-2.456,2.06-4.827A1.121,1.121,0,0,0,1537.073,1266.127Z" transform="translate(-1532.336 -1258.583)" fill="#2d2861"/>
            </g>
            <path id="Path_262" data-name="Path 262" d="M1606.39,1129.212a43.708,43.708,0,0,1-4.286-2.81,9.836,9.836,0,0,0-12.746.991l-20.138,19.924a9.854,9.854,0,0,0,.414,14.357,80.628,80.628,0,0,0,15.827,11.082,9.849,9.849,0,0,0,13.715-4.772l11.309-26.4A9.813,9.813,0,0,0,1606.39,1129.212Z" transform="translate(-1545.406 -1124.511)" fill="#7271b3"/>
            <path id="Path_263" data-name="Path 263" d="M1565.834,1213.711l-3.628-2.771a8.3,8.3,0,0,0-11.637,1.545l-2.948,3.857L1563,1228.09l4.056-5.307A6.471,6.471,0,0,0,1565.834,1213.711Z" transform="translate(-1535.337 -1170.136)" fill="#2d2861"/>
            <path id="Path_264" data-name="Path 264" d="M1555.5,1237.6l-2.979-2.275a1.113,1.113,0,0,0-1.561.207l-3.159,4.133a1.113,1.113,0,0,0,.211,1.559l2.979,2.276a1.113,1.113,0,0,0,1.561-.207l3.158-4.132A1.112,1.112,0,0,0,1555.5,1237.6Z" transform="translate(-1535.311 -1184.062)" fill="#2d2861"/>
            <g id="Group_71" data-name="Group 71" transform="translate(0 53.945)">
              <path id="Path_265" data-name="Path 265" d="M1533.889,1243.011q-.984-.7-1.972-1.4a1.115,1.115,0,0,0-1.553.265q-1.328,1.9-2.492,3.893a1.111,1.111,0,0,0,.439,1.532q1.056.572,2.106,1.152a1.113,1.113,0,0,0,1.5-.416q1.044-1.775,2.23-3.478A1.118,1.118,0,0,0,1533.889,1243.011Z" transform="translate(-1524.621 -1241.409)" fill="#2d2861"/>
              <path id="Path_266" data-name="Path 266" d="M1525.739,1257.064q-.476-.24-.953-.477a1.115,1.115,0,0,0-1.5.5q-1.241,2.548-2.218,5.2a1.11,1.11,0,0,0,.7,1.428l1.011.341a1.109,1.109,0,0,0,1.4-.672q.908-2.457,2.06-4.827A1.12,1.12,0,0,0,1525.739,1257.064Z" transform="translate(-1521.002 -1249.519)" fill="#2d2861"/>
            </g>
            <path id="Path_267" data-name="Path 267" d="M1544.162,1228.531l-2.979-2.276a1.113,1.113,0,0,0-1.561.207l-3.158,4.133a1.113,1.113,0,0,0,.211,1.559l2.98,2.275a1.113,1.113,0,0,0,1.56-.207l3.158-4.132A1.112,1.112,0,0,0,1544.162,1228.531Z" transform="translate(-1529.206 -1179.181)" fill="#2d2861"/>
            <g id="Group_72" data-name="Group 72" transform="translate(10.432 62.373)">
              <path id="Path_268" data-name="Path 268" d="M1556.493,1261.276q-.982-.7-1.971-1.4a1.115,1.115,0,0,0-1.552.265q-1.328,1.9-2.493,3.892a1.111,1.111,0,0,0,.44,1.533q1.056.572,2.107,1.152a1.112,1.112,0,0,0,1.5-.416q1.044-1.776,2.229-3.478A1.117,1.117,0,0,0,1556.493,1261.276Z" transform="translate(-1547.226 -1259.673)" fill="#2d2861"/>
              <path id="Path_269" data-name="Path 269" d="M1548.344,1275.328l-.953-.477a1.116,1.116,0,0,0-1.5.5q-1.24,2.548-2.218,5.2a1.108,1.108,0,0,0,.7,1.427l1.01.343a1.11,1.11,0,0,0,1.4-.673q.908-2.457,2.06-4.826A1.122,1.122,0,0,0,1548.344,1275.328Z" transform="translate(-1543.607 -1267.784)" fill="#2d2861"/>
            </g>
            <path id="Path_270" data-name="Path 270" d="M1566.768,1246.8l-2.98-2.276a1.113,1.113,0,0,0-1.56.207l-3.158,4.133a1.113,1.113,0,0,0,.21,1.56l2.979,2.275a1.114,1.114,0,0,0,1.561-.207l3.158-4.132A1.113,1.113,0,0,0,1566.768,1246.8Z" transform="translate(-1541.38 -1189.016)" fill="#2d2861"/>
            <g id="Group_73" data-name="Group 73" transform="translate(23.03 61.077)">
              <path id="Path_271" data-name="Path 271" d="M1579.925,1256.9q1.171.3,2.34.605a1.116,1.116,0,0,1,.8,1.358q-.6,2.243-1.364,4.418a1.108,1.108,0,0,1-1.454.652q-1.117-.438-2.238-.867a1.114,1.114,0,0,1-.65-1.416q.682-1.942,1.216-3.948A1.115,1.115,0,0,1,1579.925,1256.9Z" transform="translate(-1574.347 -1256.864)" fill="#2d2861"/>
              <path id="Path_272" data-name="Path 272" d="M1574.872,1272.647l.98.421a1.117,1.117,0,0,1,.584,1.469q-1.145,2.593-2.539,5.05a1.106,1.106,0,0,1-1.539.389q-.455-.278-.912-.553a1.11,1.11,0,0,1-.39-1.5q1.29-2.279,2.356-4.688A1.118,1.118,0,0,1,1574.872,1272.647Z" transform="translate(-1570.909 -1265.316)" fill="#2d2861"/>
            </g>
            <path id="Path_273" data-name="Path 273" d="M1585.472,1240.22q.071-.093.139-.187l1.079.239a1.073,1.073,0,0,1,.817,1.277l-1.144,5.2a1.069,1.069,0,0,1-1.276.814l-3.281-.728a1.073,1.073,0,0,1-.8-.762Z" transform="translate(-1553.314 -1186.724)" fill="#2d2861"/>
          </g>
          <path id="Path_274" data-name="Path 274" d="M1740.78,1139q13.529-16.307,27.714-32.142a4.741,4.741,0,0,0-.8-7.033,178.449,178.449,0,0,0-60.757-27.858,4.728,4.728,0,0,0-5.863,4.35q-1.012,20.788-3.734,41.382c-.3,2.28,1.238,4.049,3.259,5.154,4.247,2.323,5.781,2.431,31.95,16.048a11.637,11.637,0,0,1,2.567,1.38A4.748,4.748,0,0,0,1740.78,1139Z" transform="translate(-1615.946 -991.283)" fill="#7271b3"/>
          <path id="Path_275" data-name="Path 275" d="M1774.251,1088.024l-1.676-.778a6.656,6.656,0,0,1-3.231-8.837l6.392-13.774,13.745,6.39-6.388,13.766A6.654,6.654,0,0,1,1774.251,1088.024Z" transform="translate(-1654.409 -987.408)" fill="#2d2861"/>
          <path id="Path_276" data-name="Path 276" d="M1817.489,976.028c-9.189,19.8-33.313,28.1-53.883,18.538S1733.808,961.2,1743,941.4s33.313-28.1,53.883-18.537S1826.677,956.228,1817.489,976.028Z" transform="translate(-1638.638 -908.919)" fill="#7271b3"/>
          <path id="Path_277" data-name="Path 277" d="M1820.129,1009.346a103.653,103.653,0,0,0-38.923-17.918c-2.863-.652-4.478-3.764-3.644-7.074q1.05-4.164,2.1-8.327c.878-3.486,4.122-5.84,7.134-5.141A119.04,119.04,0,0,1,1832,992.1c2.454,1.863,2.738,5.845.651,8.753l-4.8,6.7C1825.872,1010.307,1822.475,1011.089,1820.129,1009.346Z" transform="translate(-1659.05 -936.855)" fill="#2d2861"/>
          <path id="Path_278" data-name="Path 278" d="M1871.163,1022.719a4.772,4.772,0,1,1-2.406-6.141A4.661,4.661,0,0,1,1871.163,1022.719Z" transform="translate(-1704.7 -961.278)" fill="#adeff7"/>
          <path id="Path_279" data-name="Path 279" d="M1812.7,993.656a4.773,4.773,0,1,1-2.406-6.141A4.661,4.661,0,0,1,1812.7,993.656Z" transform="translate(-1673.216 -945.627)" fill="#adeff7"/>
          <path id="Path_280" data-name="Path 280" d="M1757.266,921.4c.557.259,4.807,2.965,5.365,3.224,10.436-22.481,29.519-28.683,45.49-22.906a10.52,10.52,0,0,0,.7-1.915C1792.025,893.737,1768.229,897.766,1757.266,921.4Z" transform="translate(-1648.238 -897.283)" fill="#e8e3e7"/>
          <path id="Path_281" data-name="Path 281" d="M1740.169,941.328c4.807,2.382,4.875,11.846.21,21.023-4.443,8.74-11.713,14.366-16.515,12.756l0,0c-6.234-3.874-11.345-13.5-7.679-20.73l2.651-5.713C1722.384,941.012,1733.04,937.8,1740.169,941.328Z" transform="translate(-1625.451 -920.232)" fill="#fff"/>
          <g id="Group_79" data-name="Group 79" transform="translate(152.109 145.676)">
            <g id="Group_75" data-name="Group 75" transform="translate(55.818 52.739)">
              <path id="Path_282" data-name="Path 282" d="M1973.24,1327.694q-.724.967-1.44,1.942a1.116,1.116,0,0,0,.231,1.559q1.871,1.371,3.834,2.58a1.109,1.109,0,0,0,1.54-.407q.594-1.043,1.2-2.082a1.113,1.113,0,0,0-.383-1.51q-1.75-1.083-3.425-2.307A1.114,1.114,0,0,0,1973.24,1327.694Z" transform="translate(-1971.582 -1327.25)" fill="#2d2861"/>
              <path id="Path_283" data-name="Path 283" d="M1987.091,1337.627l-.5.943a1.117,1.117,0,0,0,.468,1.51,56.145,56.145,0,0,0,5.145,2.333,1.107,1.107,0,0,0,1.441-.665l.363-1a1.111,1.111,0,0,0-.64-1.415q-2.434-.964-4.776-2.168A1.119,1.119,0,0,0,1987.091,1337.627Z" transform="translate(-1979.597 -1332.52)" fill="#2d2861"/>
            </g>
            <path id="Path_284" data-name="Path 284" d="M1856.631,1216.827a43.775,43.775,0,0,1-3.327,3.9,9.857,9.857,0,0,0-.629,12.78q8.6,11.257,17.2,22.512a9.834,9.834,0,0,0,14.281,1.4,80.677,80.677,0,0,0,12.983-14.313,9.865,9.865,0,0,0-3-14.22l-24.737-14.565A9.793,9.793,0,0,0,1856.631,1216.827Z" transform="translate(-1850.624 -1212.964)" fill="#7271b3"/>
            <path id="Path_285" data-name="Path 285" d="M1935.519,1289.9l-2.847,3.57a8.32,8.32,0,0,0,1.289,11.678l3.789,3.034,12.071-15.134-5.213-4.174A6.459,6.459,0,0,0,1935.519,1289.9Z" transform="translate(-1893.83 -1253.084)" fill="#2d2861"/>
            <path id="Path_286" data-name="Path 286" d="M1959.018,1315.092l-2.338,2.931a1.115,1.115,0,0,0,.174,1.566l4.058,3.251a1.111,1.111,0,0,0,1.563-.177l2.338-2.931a1.118,1.118,0,0,0-.173-1.567l-4.059-3.25A1.11,1.11,0,0,0,1959.018,1315.092Z" transform="translate(-1907.608 -1267.737)" fill="#2d2861"/>
            <g id="Group_76" data-name="Group 76" transform="translate(51.525 57.881)">
              <path id="Path_287" data-name="Path 287" d="M1963.936,1338.837q-.723.968-1.44,1.942a1.117,1.117,0,0,0,.231,1.559q1.871,1.371,3.834,2.579a1.108,1.108,0,0,0,1.54-.406q.594-1.043,1.2-2.082a1.115,1.115,0,0,0-.383-1.51q-1.75-1.082-3.425-2.307A1.116,1.116,0,0,0,1963.936,1338.837Z" transform="translate(-1962.279 -1338.393)" fill="#2d2861"/>
              <path id="Path_288" data-name="Path 288" d="M1977.788,1348.77q-.25.471-.5.944a1.117,1.117,0,0,0,.468,1.51,56.4,56.4,0,0,0,5.145,2.333,1.107,1.107,0,0,0,1.442-.666q.181-.5.364-1a1.111,1.111,0,0,0-.641-1.416q-2.434-.962-4.776-2.166A1.118,1.118,0,0,0,1977.788,1348.77Z" transform="translate(-1970.294 -1343.663)" fill="#2d2861"/>
            </g>
            <path id="Path_289" data-name="Path 289" d="M1949.716,1326.234l-2.338,2.931a1.116,1.116,0,0,0,.173,1.566l4.059,3.251a1.111,1.111,0,0,0,1.563-.177l2.338-2.931a1.116,1.116,0,0,0-.173-1.566l-4.059-3.25A1.11,1.11,0,0,0,1949.716,1326.234Z" transform="translate(-1902.598 -1273.738)" fill="#2d2861"/>
            <g id="Group_77" data-name="Group 77" transform="translate(60.173 47.627)">
              <path id="Path_290" data-name="Path 290" d="M1982.676,1316.617q-.724.968-1.44,1.942a1.118,1.118,0,0,0,.231,1.559q1.87,1.37,3.834,2.579a1.108,1.108,0,0,0,1.54-.406q.595-1.044,1.2-2.082a1.114,1.114,0,0,0-.383-1.51q-1.75-1.083-3.425-2.307A1.114,1.114,0,0,0,1982.676,1316.617Z" transform="translate(-1981.018 -1316.173)" fill="#2d2861"/>
              <path id="Path_291" data-name="Path 291" d="M1996.528,1326.55q-.25.471-.5.943a1.118,1.118,0,0,0,.467,1.511,56.486,56.486,0,0,0,5.146,2.333,1.108,1.108,0,0,0,1.442-.665c.12-.336.241-.669.363-1a1.111,1.111,0,0,0-.641-1.416q-2.434-.963-4.776-2.167A1.118,1.118,0,0,0,1996.528,1326.55Z" transform="translate(-1989.034 -1321.443)" fill="#2d2861"/>
            </g>
            <path id="Path_292" data-name="Path 292" d="M1968.455,1304.014l-2.338,2.931a1.115,1.115,0,0,0,.173,1.566l4.059,3.25a1.111,1.111,0,0,0,1.563-.176l2.338-2.932a1.115,1.115,0,0,0-.173-1.565l-4.059-3.251A1.11,1.11,0,0,0,1968.455,1304.014Z" transform="translate(-1912.689 -1261.772)" fill="#2d2861"/>
            <g id="Group_78" data-name="Group 78" transform="translate(59.123 35.953)">
              <path id="Path_293" data-name="Path 293" d="M1978.786,1294.015q.324-1.166.656-2.328a1.115,1.115,0,0,1,1.374-.77q2.226.644,4.383,1.461a1.11,1.11,0,0,1,.62,1.468q-.464,1.11-.916,2.222a1.113,1.113,0,0,1-1.428.619q-1.926-.726-3.918-1.3A1.116,1.116,0,0,1,1978.786,1294.015Z" transform="translate(-1978.745 -1290.874)" fill="#2d2861"/>
              <path id="Path_294" data-name="Path 294" d="M1994.437,1299.627q.22-.485.442-.97a1.115,1.115,0,0,1,1.48-.552,56.452,56.452,0,0,1,4.99,2.651,1.109,1.109,0,0,1,.354,1.549q-.286.452-.571.9a1.109,1.109,0,0,1-1.512.357q-2.248-1.341-4.632-2.46A1.121,1.121,0,0,1,1994.437,1299.627Z" transform="translate(-1987.142 -1294.712)" fill="#2d2861"/>
            </g>
            <path id="Path_295" data-name="Path 295" d="M1962.3,1287.243c-.06-.049-.122-.1-.184-.143l.262-1.075a1.073,1.073,0,0,1,1.294-.789l5.166,1.258a1.07,1.07,0,0,1,.784,1.3l-.8,3.267a1.074,1.074,0,0,1-.779.787Z" transform="translate(-1910.669 -1251.869)" fill="#2d2861"/>
          </g>
        </g>
        <path id="Path_296" data-name="Path 296" d="M1698.325,1517.212a18.991,18.991,0,1,0-36.069,0Z" transform="translate(-1596.557 -1217.693)" fill="#2d2861"/>
        <path id="Path_297" data-name="Path 297" d="M1801.55,1517.212a18.991,18.991,0,1,0-36.069,0Z" transform="translate(-1652.147 -1217.693)" fill="#2d2861"/>
      </g>
      <path id="Path_298" data-name="Path 298" d="M1735.667,863.606a3.658,3.658,0,1,1-3.658-3.661A3.66,3.66,0,0,1,1735.667,863.606Z" transform="translate(-1632.666 -859.945)"/>
      <g id="Group_82" data-name="Group 82" transform="translate(98.473 3.489)">
        <path id="Path_299" data-name="Path 299" d="M1739.96,907.1l-1.977-18.785,4.928-3.246-7.341-2.347,4.938-3.442-4.247-1.989-1.867-9.442,1.739-.344,1.693,8.561,6.22,2.912-4.516,3.148,7.456,2.384-7.125,4.695,1.863,17.711Z" transform="translate(-1734.394 -867.506)"/>
      </g>
    </g>
  </g>
</svg>
