<svg xmlns="http://www.w3.org/2000/svg" width="118.664" height="59.341" viewBox="0 0 118.664 59.341">
  <path id="Icon_awesome-gamepad" data-name="Icon awesome-gamepad" d="M89.012,6.75H29.671A29.671,29.671,0,1,0,50.848,57.19H67.816a29.667,29.667,0,1,0,21.2-50.44ZM47.473,40.129a2.232,2.232,0,0,1-2.225,2.225H35.6V52a2.232,2.232,0,0,1-2.225,2.225H25.962A2.232,2.232,0,0,1,23.736,52V42.355H14.094a2.232,2.232,0,0,1-2.225-2.225V32.712a2.232,2.232,0,0,1,2.225-2.225h9.643V20.844a2.232,2.232,0,0,1,2.225-2.225h7.418A2.232,2.232,0,0,1,35.6,20.844v9.643h9.643a2.232,2.232,0,0,1,2.225,2.225Zm34.121,12.61a8.9,8.9,0,1,1,8.9-8.9A8.9,8.9,0,0,1,81.594,52.739ZM96.429,37.9a8.9,8.9,0,1,1,8.9-8.9A8.9,8.9,0,0,1,96.429,37.9Z" transform="translate(0 -6.75)" fill="#ff4410"/>
</svg>
