<svg id="Icon_awesome-laptop-code" data-name="Icon awesome-laptop-code" xmlns="http://www.w3.org/2000/svg" width="99.979" height="79.983" viewBox="0 0 99.979 79.983">
  <path id="Icon_awesome-laptop-code-2" data-name="Icon awesome-laptop-code" d="M39.84,40.874a2.5,2.5,0,0,0,3.535,0l1.767-1.767a2.5,2.5,0,0,0,0-3.535l-5.58-5.578,5.578-5.58a2.5,2.5,0,0,0,0-3.535l-1.767-1.767a2.5,2.5,0,0,0-3.535,0l-9.114,9.114a2.5,2.5,0,0,0,0,3.535l9.115,9.114Zm15-1.765,1.767,1.767a2.5,2.5,0,0,0,3.535,0l9.114-9.114a2.5,2.5,0,0,0,0-3.535L60.14,19.113a2.5,2.5,0,0,0-3.535,0L54.838,20.88a2.5,2.5,0,0,0,0,3.535l5.578,5.578-5.578,5.58a2.5,2.5,0,0,0,0,3.535ZM97.479,64.986H59.6a4.925,4.925,0,0,1-5.115,5h-9.5a5.3,5.3,0,0,1-5.119-5H2.5a2.507,2.507,0,0,0-2.5,2.5v2.5a10.027,10.027,0,0,0,10,10H89.981a10.027,10.027,0,0,0,10-10v-2.5A2.507,2.507,0,0,0,97.479,64.986ZM89.981,7.5a7.52,7.52,0,0,0-7.5-7.5H17.5A7.52,7.52,0,0,0,10,7.5V59.987H89.981Zm-10,42.491H20V10H79.983Z" fill="#0025bb"/>
</svg>
