<svg xmlns="http://www.w3.org/2000/svg" width="102.766" height="82.212" viewBox="0 0 102.766 82.212">
  <path id="Icon_awesome-chalkboard-teacher" data-name="Icon awesome-chalkboard-teacher" d="M33.4,56.521a3.673,3.673,0,0,0-1.134.175,21.182,21.182,0,0,1-6.574,1.11,21.2,21.2,0,0,1-6.575-1.11,3.663,3.663,0,0,0-1.132-.175A17.985,17.985,0,0,0,0,74.6a7.688,7.688,0,0,0,7.707,7.608H43.675A7.688,7.688,0,0,0,51.383,74.6,17.985,17.985,0,0,0,33.4,56.521Zm-7.707-5.138A15.415,15.415,0,1,0,10.277,35.968,15.415,15.415,0,0,0,25.691,51.383ZM95.058,0H33.4a7.847,7.847,0,0,0-7.707,7.963v7.452a20.32,20.32,0,0,1,10.277,2.858v-8H92.489V56.521H82.212V46.244H61.659V56.521H49.417A20.465,20.465,0,0,1,55.79,66.8H95.058a7.847,7.847,0,0,0,7.707-7.963V7.963A7.847,7.847,0,0,0,95.058,0Z" transform="translate(0)" fill="#0025bb"/>
</svg>
