<?xml version="1.0" encoding="utf-8"?>
<!-- Generator: Adobe Illustrator 25.2.3, SVG Export Plug-In . SVG Version: 6.00 Build 0)  -->
<svg version="1.1" id="Laag_1" xmlns="http://www.w3.org/2000/svg" xmlns:xlink="http://www.w3.org/1999/xlink" x="0px" y="0px"
	 viewBox="0 0 595.3 841.9" style="enable-background:new 0 0 595.3 841.9;" xml:space="preserve">
<style type="text/css">
	.st0{fill:none;}
	.st1{fill:#079539;stroke:#85AB28;stroke-width:4;stroke-miterlimit:10;}
	.st2{fill:#0025BB;}
	.st3{fill:#FF8F70;}
	.st4{fill:#D6ECF2;}
	.st5{fill:#AADCF2;}
	.st6{fill:#66AAD6;}
	.st7{fill:#FF4410;}
	.st8{fill:#FF6940;}
	.st9{fill:#FFB49F;}
	.st10{fill:#85BAE4;}
</style>
<rect x="139.8" y="471.2" class="st0" width="375" height="157.5"/>
<image style="display:none;overflow:visible;" width="500" height="210" xlink:href="../Nieuwe map (2)/logo_small.png"  transform="matrix(0.75 0 0 0.75 135.0312 459.1917)">
</image>
<path class="st1" d="M384.5,616.6"/>
<g>
	<g>
		<path class="st2" d="M214.8,293.7C110,329.5,90.1,383.2,101.5,424.4s55.3,51.9,55.3,51.9s46.8,17.9,111.9,0s62.4-19.7,90.7-34"/>
		<path class="st2" d="M222.9,360C202.6,447.6,237,493.1,276,511.5s68.5-2.4,68.5-2.4s36.7-18.1,52.9-69.9s13.4-51.1,15.1-77.6"/>
		<path class="st2" d="M295.7,363.4c13.1,63.6,61.4,96.5,103.9,109.7c42.5,13.2,62.1-2,62.1-2s27.2-13.3,23.2-50.9
			c-3.9-37.6-6.3-37.1-14.3-56.4"/>
		<path class="st2" d="M273.3,304.8c-22.3-81.5-59.2-98-88.1-90.2s-37.5,41.4-37.5,41.4s-13.6,35.6-2.8,86.2
			c10.8,50.6,12.2,48.5,21.4,70.6"/>
		<path class="st2" d="M453.2,409.9c52.7-63.7,43.1-114.2,18.6-144.2c-24.5-30-57.2-24.5-57.2-24.5s-37.6,0.6-72.2,36.7
			s-32,36.6-44.3,57.6"/>
		<path class="st2" d="M417.9,360.4c21.5-96.8-16.2-145.2-58.5-163.7s-74.2,5.6-74.2,5.6s-39.7,21.4-56.9,78.8s-14.2,56.5-15.9,85.7
			"/>
		<g>
			<path class="st3" d="M289.6,351h25.2c0,0,15.3,2.1,17.7,18.7v37.4c0,0-2.9,16.7-18.7,19.3l-24.2,0.6V351z"/>
			<polygon class="st4" points="216.9,292 238.3,292 238.3,299.7 224.7,299.7 224.7,309.4 238.3,309.4 238.3,317.7 224.7,317.7 
				224.7,336.5 216.9,336.5 			"/>
			<path class="st5" d="M243.4,292h8.3v33.2c0,0,0.8,4.3,4.1,4c3.3-0.3,3.8-1.3,4.8-3.4s0-33.9,0-33.9h8.4v34.9
				c0,0-2.1,10.9-12.8,10.3c-10.8-0.7-12.8-9.4-12.8-9.4V292z"/>
			<polygon class="st6" points="270.6,292 270.6,299.6 279.3,299.6 279,336.3 287.5,336.3 287.5,299.7 295.7,299.7 295.7,292 			"/>
			<path class="st5" d="M328.3,292v44.4h8.1v-19l5.8,0.1c0,0,3.6,0.4,4.2,4.3c0.9,6.1-0.3,11.7,0,14.5h7.4v-15.8
				c0,0-0.1-4.3-3.3-6.4c0,0,4.5-3.9,4.3-9.5c-0.2-5.6-1.5-9.9-9.5-12.7H328.3z"/>
			<path class="st2" d="M336.3,299.8v9.8h6.8c0,0,4-1.1,3.7-4.9c-0.3-3.8-3.7-4.9-3.7-4.9H336.3z"/>
			<polygon class="st4" points="359.4,292 380.6,292 380.6,299.8 367.4,299.8 367.4,309.7 380.6,309.7 380.6,317.5 367.5,317.5 
				367.5,328.5 380.6,328.5 380.6,336.3 359.4,336.7 			"/>
			<polygon class="st7" points="216.9,351 230.2,351 230.2,377 247.5,351 261,351 242.1,381.8 262.8,426.4 248.8,426.4 234.1,395.1 
				230.4,399.7 230.3,426.4 216.9,426.4 			"/>
			<rect x="266.5" y="351" class="st8" width="13.7" height="75.4"/>
			<path class="st2" d="M303,364.1h10c0,0,5,1.7,6.2,6.6v34.1c0,0-0.8,6.8-7.5,8.4c-6.7,1.5-0.6,0-0.6,0l-8.1,0.2V364.1z"/>
			<path class="st9" d="M367.5,380.7h13.2v-12.6c0,0-1-16.6-21.2-18.6c-20.2-2-22,23.3-21.7,24c0.3,0.8,0,14.8,14.4,19.6
				s15.7,11.1,15.2,14.4c-0.4,3.3-1.3,4.8-7.4,7.1s-8.8-7.2-8.8-7.2v-6.9l-13.5-0.1c0,0,0.5,9.7,0.5,10c0,0.3,6.7,18.9,21.2,17.5
				c14.6-1.3,20.7-8.8,21.3-20.4c0.6-11.6-4.5-15.7-14.7-21.3c-10.2-5.6-13.6-8.7-13.6-8.7s-4.4-12.3,6.7-14.9c0,0,7.5,0,8.1,6.2
				L367.5,380.7z"/>
			<path class="st10" d="M298.2,292h8.3v33.2c0,0,0.8,4.3,4.1,4c3.3-0.3,3.8-1.3,4.8-3.4c1-2.1,0-33.9,0-33.9h8.4v34.9
				c0,0-2.1,10.9-12.8,10.3c-10.8-0.7-12.8-9.4-12.8-9.4V292z"/>
		</g>
	</g>
</g>
</svg>
